<svg width="17" height="16" viewBox="0 0 17 16" fill="none" xmlns="http://www.w3.org/2000/svg">
<path d="M6.97041 0.614177C4.50465 1.9981 4.28547 5.66933 6.55031 7.86054C6.98867 8.2834 7.42703 8.62938 7.53662 8.62938C7.62794 8.62938 7.71926 8.70627 7.71926 8.80237C7.71926 8.89848 7.37223 9.03303 6.95214 9.10991C4.57771 9.51355 2.05716 11.5318 1.32657 13.5692C0.851684 14.8955 0.851684 15.203 1.34483 15.1261C1.63707 15.0877 1.83799 14.7801 2.11196 14.0305C2.82429 11.9739 4.9978 10.3401 7.51835 9.9172C11.1896 9.32134 14.9704 11.4164 15.7193 14.4149C15.8289 14.8762 15.9932 15.0877 16.2672 15.1261C16.8517 15.2222 16.7969 14.5303 16.1211 13.0887C15.2078 11.1666 13.4727 9.85953 11.0069 9.20602C9.81972 8.89848 9.81972 8.89848 10.5868 8.36029C11.9567 7.39923 12.6508 6.01531 12.6508 4.1893C12.6508 2.49785 11.975 1.26769 10.6051 0.537292C9.61881 0.018322 8.0115 0.0375433 6.97041 0.614177ZM9.74666 1.13315C11.0435 1.51757 12.048 3.22825 11.8106 4.66983C11.427 7.14936 9.61881 8.53328 7.82885 7.70677C6.67817 7.14936 6.02063 6.07297 5.92931 4.49684C5.81972 2.74772 6.38593 1.76744 7.84712 1.21003C8.6873 0.902493 8.90648 0.883272 9.74666 1.13315Z" fill="#1C1C1C"/>
</svg>
