<svg width="17" height="17" viewBox="0 0 17 17" fill="none" xmlns="http://www.w3.org/2000/svg">
<path d="M5.39929 0.364822C2.86048 1.30666 0.960938 4.0745 0.960938 6.82312C0.960938 8.899 1.63674 10.5328 3.04313 11.8975C5.08879 13.8773 7.81025 14.3578 10.276 13.1661C10.824 12.897 11.4084 12.551 11.5911 12.378C11.9016 12.0897 12.066 12.2242 14.1664 14.3962C15.4084 15.684 16.5043 16.7412 16.6139 16.7412C17.2714 16.7412 16.7966 16.0108 14.824 13.9349C13.6367 12.6856 12.6504 11.59 12.6504 11.4938C12.6504 11.417 12.8696 11.0133 13.1253 10.6097C14.0386 9.14887 14.3308 6.95766 13.8559 5.11244C12.9061 1.36432 8.88788 -0.88455 5.39929 0.364822ZM9.67327 1.40276C13.2897 2.82512 14.3856 8.03405 11.6824 10.9941C8.77829 14.1848 3.70066 13.1661 2.23948 9.11043C1.7098 7.64962 1.78286 5.5353 2.40386 4.26671C3.75546 1.51809 6.86048 0.287937 9.67327 1.40276Z" fill="#1C1C1C"/>
</svg>
