<svg width="20" height="18" viewBox="0 0 20 18" fill="none" xmlns="http://www.w3.org/2000/svg">
<path d="M3.87564 1.23033C2.87107 1.71085 1.79345 2.76801 1.26376 3.80595C0.916733 4.45947 0.861938 4.88234 0.861938 6.61224C0.861938 8.61123 0.880203 8.6689 1.62906 10.2642C2.48751 12.0903 3.69299 13.5895 5.44641 15.0503C7.09025 16.4342 9.50121 17.9335 10.0674 17.9335C10.6519 17.9335 12.8802 16.6264 14.3962 15.3963C15.7478 14.3007 17.5925 12.244 18.1953 11.1484C19.5103 8.80344 19.8208 5.95872 18.9989 4.07505C18.0857 1.97995 16.3871 0.826681 14.2318 0.826681C12.8071 0.826681 11.9852 1.13422 10.8711 2.09527C10.0857 2.78724 10.0857 2.78724 9.40988 2.17216C8.36879 1.19188 7.43728 0.826681 5.97609 0.826681C5.08112 0.826681 4.44185 0.961229 3.87564 1.23033ZM7.52861 2.01839C7.87564 2.13372 8.58797 2.65269 9.11765 3.19088C10.0857 4.15193 10.0857 4.15193 10.9624 3.28698C12.0218 2.24904 12.3323 2.05683 13.4281 1.78774C14.7432 1.4802 15.9122 1.82618 17.0081 2.86412C18.1039 3.90206 18.5058 4.90156 18.5058 6.57379C18.5058 10.0528 16.04 13.4357 11.4921 16.242C10.2135 17.0301 10.2135 17.0301 9.37335 16.588C6.52404 15.1464 3.60166 12.3209 2.48751 9.95671C1.90303 8.70734 1.79345 8.26525 1.72039 6.88133C1.64733 5.47819 1.70212 5.15143 2.04915 4.44025C3.2181 2.03761 5.08112 1.23033 7.52861 2.01839Z" fill="#1C1C1C"/>
</svg>
