<svg width="17" height="19" viewBox="0 0 17 19" fill="none" xmlns="http://www.w3.org/2000/svg">
<path d="M6.62032 0.69211C5.14087 1.40329 4.28242 2.69111 4.06324 4.53633C3.93539 5.63194 3.93539 5.63194 2.89429 5.63194C1.1774 5.63194 1.25046 5.43972 0.720778 11.1292C0.264157 15.9537 0.264157 16.1267 0.574659 16.8186C0.757307 17.2223 1.1774 17.722 1.50617 17.9334C2.07238 18.2986 2.40114 18.3179 8.20936 18.3179C14.2733 18.3179 14.3281 18.3179 14.9491 17.8758C15.2961 17.6451 15.7162 17.1454 15.9171 16.7802C16.2459 16.1074 16.2459 16.0306 15.7893 11.2253C15.424 7.4195 15.2596 6.28545 15.0221 6.01636C14.7847 5.74726 14.4011 5.63194 13.5792 5.59349C12.4651 5.53583 12.4651 5.53583 12.3555 4.34412C12.2276 2.90254 11.6249 1.84538 10.5107 1.07653C9.88973 0.634447 9.52443 0.538342 8.46507 0.480677C7.66142 0.461456 6.96735 0.538342 6.62032 0.69211ZM10.1454 1.92226C11.0587 2.71033 11.4422 3.45995 11.497 4.594C11.5518 5.53583 11.5518 5.53583 8.26416 5.53583C4.97649 5.53583 4.97649 5.53583 4.92169 5.0553C4.75731 3.86359 5.81667 2.01837 6.98562 1.46095C7.89886 1.03809 9.34178 1.2303 10.1454 1.92226ZM14.9126 11.2637C15.3144 15.5308 15.3326 15.896 15.0587 16.4919C14.8395 16.9724 14.5838 17.203 14.0724 17.3376C13.3235 17.5682 3.69795 17.6259 2.71165 17.4337C1.83493 17.2415 1.23219 16.4919 1.23219 15.5885C1.23219 14.5505 1.96279 6.95819 2.07238 6.74676C2.12717 6.65065 4.93996 6.61221 8.31895 6.63143C14.4742 6.6891 14.4742 6.6891 14.9126 11.2637Z" fill="#1C1C1C"/>
</svg>
