<svg width="19" height="18" viewBox="0 0 19 18" fill="none" xmlns="http://www.w3.org/2000/svg">
<path d="M3.0137 0.399881C2.00913 0.880409 0.931507 1.93757 0.401827 2.97551C0.0547945 3.62903 0 4.05189 0 5.78179C0 7.78079 0.0182648 7.83845 0.767123 9.4338C1.62557 11.2598 2.83105 12.7591 4.58448 14.2199C6.22831 15.6038 8.63927 17.103 9.20548 17.103C9.78996 17.103 12.0183 15.796 13.5342 14.5658C14.8858 13.4702 16.7306 11.4136 17.3333 10.318C18.6484 7.973 18.9589 5.12827 18.137 3.24461C17.2237 1.1495 15.5251 -0.0037632 13.3699 -0.0037632C11.9452 -0.0037632 11.1233 0.303776 10.0091 1.26483C9.22374 1.95679 9.22374 1.95679 8.54795 1.34172C7.50685 0.361439 6.57534 -0.0037632 5.11416 -0.0037632C4.21918 -0.0037632 3.57991 0.130785 3.0137 0.399881ZM6.66667 1.18795C7.0137 1.30327 7.72603 1.82224 8.25571 2.36043C9.22374 3.32149 9.22374 3.32149 10.1005 2.45654C11.1598 1.4186 11.4703 1.22639 12.5662 0.957293C13.8813 0.649755 15.0502 0.995735 16.1461 2.03368C17.242 3.07162 17.6438 4.07111 17.6438 5.74335C17.6438 9.22237 15.1781 12.6053 10.6301 15.4116C9.3516 16.1996 9.3516 16.1996 8.51142 15.7575C5.6621 14.316 2.73973 11.4905 1.62557 9.12627C1.0411 7.87689 0.931507 7.43481 0.858448 6.05089C0.785388 4.64775 0.840183 4.32099 1.18721 3.60981C2.35616 1.20717 4.21918 0.399881 6.66667 1.18795Z" fill="#1C1C1C"/>
</svg>
