<svg width="37" height="39" viewBox="0 0 37 39" fill="none" xmlns="http://www.w3.org/2000/svg">
<path d="M10.7245 1.11325C7.64148 1.40688 5.46869 2.17029 3.70696 3.57967C2.26822 4.78352 0.800117 7.36738 0.330324 9.5989C-0.110108 11.6836 -0.110108 27.6272 0.330324 29.6826C1.29927 34.2631 4.44102 37.1699 9.13895 37.8452C11.5466 38.1976 25.4349 38.1976 27.8132 37.8746C32.5993 37.1699 35.8291 34.1162 36.6806 29.477C37.121 27.1868 37.0917 11.6249 36.6806 9.5989C35.8585 5.69374 33.3627 2.84562 29.7218 1.7005C27.9894 1.17198 26.8737 1.08389 20.5608 0.995808C16.5969 0.93708 12.1926 0.995808 10.7245 1.11325ZM29.6631 5.31203C31.4541 6.1929 32.3937 7.24993 33.0691 9.15847C33.6563 10.744 33.9499 21.931 33.5388 26.5702C33.1571 30.9451 32.335 32.5013 29.6631 33.9107C28.7235 34.4392 27.8426 34.4686 18.5055 34.4686C8.69852 34.4686 8.34617 34.4392 7.20105 33.8226C5.64486 33.0005 4.88145 32.149 4.08867 30.3579C3.47207 29.0072 3.41334 28.3613 3.29589 21.6961C3.11972 11.3019 3.56015 8.33633 5.52741 6.51588C7.61212 4.57798 8.72788 4.40181 19.3863 4.46053C28.0481 4.51926 28.0481 4.51926 29.6631 5.31203Z" fill="white"/>
<path d="M27.5441 7.7207C26.4577 8.27858 25.9586 9.4237 26.399 10.4514C26.7513 11.3029 27.7496 12.0076 28.6011 12.0076C28.8067 12.0076 29.3352 11.7433 29.7756 11.391C31.7429 9.83477 29.7756 6.60494 27.5441 7.7207Z" fill="white"/>
<path d="M16.3595 10.2444C13.3646 11.0078 10.722 13.298 9.69433 16.0581C8.81347 18.3777 8.96028 21.7837 10.076 23.9271C10.9569 25.6888 12.7774 27.3918 14.6565 28.2727C16.5651 29.1536 20.4409 29.1536 22.3494 28.2727C25.726 26.7165 27.6346 23.8684 27.8401 20.0807C27.9869 17.0564 27.2822 15.0598 25.3737 13.0631C23.1128 10.6848 19.3251 9.51032 16.3595 10.2444ZM21.1455 14.1202C23.5826 15.3534 25.0801 18.2896 24.5222 20.756C24.4341 21.2258 23.9643 22.2241 23.4945 22.9582C21.2043 26.5697 15.8016 26.5697 13.5114 22.9582C13.0416 22.2241 12.5718 21.2258 12.4837 20.756C11.691 17.2619 14.8327 13.4742 18.503 13.4742C19.3251 13.4742 20.3528 13.7385 21.1455 14.1202Z" fill="white"/>
</svg>
